<?xml version="1.0" standalone="no"?>
<!DOCTYPE svg PUBLIC "-//W3C//DTD SVG 20010904//EN"
 "http://www.w3.org/TR/2001/REC-SVG-20010904/DTD/svg10.dtd">
<svg version="1.0" xmlns="http://www.w3.org/2000/svg"
 width="240.000000pt" height="240.000000pt" viewBox="0 0 240.000000 240.000000"
 preserveAspectRatio="xMidYMid meet">
<metadata>
Created by potrace 1.14, written by Peter Selinger 2001-2017
</metadata>
<g transform="translate(0.000000,240.000000) scale(0.100000,-0.100000)"
fill="#000000" stroke="none">
<path d="M105 2168 c5 -30 35 -248 50 -358 3 -25 8 -54 10 -65 2 -11 4 -26 4
-32 1 -10 28 -13 102 -13 l102 0 -7 59 c-4 32 -8 67 -10 78 -2 10 -7 38 -10
63 -4 25 -9 57 -12 73 l-6 27 184 0 185 0 51 -55 c67 -71 121 -104 207 -126
63 -16 122 -18 579 -19 280 0 512 -3 517 -6 4 -2 4 -16 -1 -30 -24 -61 -19
-64 89 -64 86 0 100 2 105 18 4 14 12 54 40 202 3 14 8 37 11 53 l5 27 -617 1
c-340 1 -629 2 -643 3 -75 7 -126 45 -209 154 l-33 42 -349 0 -350 0 6 -32z"/>
<path d="M4 1468 c13 -76 25 -156 31 -193 7 -48 24 -160 30 -196 3 -15 7 -44
10 -65 3 -22 7 -48 9 -60 2 -12 7 -45 11 -74 4 -29 8 -61 10 -71 2 -10 18
-109 35 -221 17 -112 33 -214 35 -227 2 -13 7 -43 10 -65 4 -23 8 -50 10 -61
2 -11 4 -23 4 -27 1 -5 451 -8 1001 -8 550 0 1000 3 1001 8 0 4 3 18 5 32 4
22 66 425 80 520 3 19 7 46 9 60 2 14 9 57 15 95 6 39 13 81 15 95 5 27 30
198 40 265 3 22 8 51 10 65 3 14 7 43 10 65 3 22 8 52 11 68 l6 27 -1202 0
-1201 0 5 -32z"/>
</g>
</svg>
