<svg xmlns="http://www.w3.org/2000/svg" xmlns:xlink="http://www.w3.org/1999/xlink" version="1.1" x="0px" 
y="0px" viewBox="0 0 100 125" enable-background="new 0 0 100 100" xml:space="preserve">
<path d="M40.626,24.894c-17.074,0-30.964,13.891-30.964,30.964c0,10.613,8.634,19.248,19.247,19.248  
c6.737,0,12.217-5.48,12.217-12.217c0-4.152-3.378-7.53-7.53-7.53c-2.86,0-5.187,2.327-5.187,5.187c0,1.568,1.276,2.843,2.844,
2.843  s2.843-1.275,2.843-2.843c0-0.276-0.224-0.5-0.5-0.5s-0.5,0.224-0.5,0.5c0,1.017-0.827,1.843-1.843,
1.843s-1.844-0.827-1.844-1.843  
c0-2.309,1.878-4.187,4.187-4.187c3.601,0,6.53,2.93,6.53,6.53c0,6.185-5.032,11.217-11.217,11.217  
c-10.062,0-18.247-8.186-18.247-18.248c0-16.522,13.442-29.964,29.964-29.964c26.859,0,48.711,21.852,48.711,48.712  
c0,0.276,0.224,0.5,0.5,0.5s0.5-0.224,0.5-0.5C90.338,47.195,68.038,24.894,40.626,24.894z"/></svg>